<?xml version="1.0" standalone="no"?>
<!DOCTYPE svg PUBLIC "-//W3C//DTD SVG 1.1//EN" "http://www.w3.org/Graphics/SVG/1.1/DTD/svg11.dtd" >
<svg xmlns="http://www.w3.org/2000/svg" xmlns:xlink="http://www.w3.org/1999/xlink" version="1.1">
<metadata></metadata>
<defs>
<font id="frutiger67_bold_condensed" horiz-adv-x="1024" >
<font-face units-per-em="2048" ascent="1638" descent="-410" />
<missing-glyph horiz-adv-x="532" />
<glyph horiz-adv-x="0" />
<glyph horiz-adv-x="0" />
<glyph unicode="&#xd;" horiz-adv-x="512" />
<glyph unicode=" "  horiz-adv-x="532" />
<glyph unicode="&#x09;" horiz-adv-x="532" />
<glyph unicode="&#xa0;" horiz-adv-x="532" />
<glyph unicode="!" horiz-adv-x="757" d="M248 1430h262l-33 -1008h-196zM256 0v258h246v-258h-246z" />
<glyph unicode="&#x22;" horiz-adv-x="1062" d="M262 1028v508h205v-508h-205zM596 1028v508h205v-508h-205z" />
<glyph unicode="#" horiz-adv-x="1064" d="M20 422v160h213l37 266h-192v160h215l59 422h160l-59 -422h241l60 422h159l-59 -422h190v-160h-213l-36 -266h190v-160h-213l-59 -422h-160l59 422h-241l-60 -422h-159l59 422h-191zM393 582h242l37 266h-242z" />
<glyph unicode="$" horiz-adv-x="1064" d="M102 1040q0 94 31 167t83 123t122 80t149 36v166h95v-162q115 -2 192.5 -23.5t114.5 -37.5l-15 -215q-57 39 -128.5 63.5t-163.5 26.5v-424l123 -47q135 -51 196.5 -139.5t61.5 -211.5q0 -223 -107.5 -335.5t-284.5 -122.5v-179h-94v175q-131 4 -213 23.5t-129 39.5 l17 233q66 -45 147.5 -75.5t177.5 -34.5v483l-82 33q-127 53 -210 137t-83 221zM332 1085q0 -25 5 -51t22.5 -54t48 -53.5t79.5 -47.5v381q-45 -6 -74.5 -24.5t-48 -43.5t-25.5 -52.5t-7 -54.5zM571 170q86 12 128 72.5t42 138.5q0 53 -7 87t-25.5 58.5t-48 42t-72.5 35.5 l-17 6v-440z" />
<glyph unicode="%" horiz-adv-x="1705" d="M106 1044q0 195 77 300.5t220 105.5t220 -105.5t77 -300.5t-76.5 -300t-220.5 -105q-143 0 -220 105t-77 300zM287 1044q0 -262 116 -262q117 0 117 262t-117 263q-116 -1 -116 -263zM453 -70l647 1569h160l-648 -1569h-159zM1006 385q0 195 76.5 300.5t220.5 105.5 q143 0 219.5 -105.5t76.5 -300.5t-76.5 -300t-219.5 -105t-220 105t-77 300zM1186 385q0 -262 117 -262t116 262q0 262 -116 262q-117 0 -117 -262z" />
<glyph unicode="&#x26;" horiz-adv-x="1327" d="M94 395q0 94 29 164t69.5 119t87 81t80.5 48q-27 33 -54 65.5t-48.5 70.5t-35 82t-13.5 99q0 49 20.5 106.5t67.5 106.5t122 81t181 32q98 0 168 -28.5t113 -73.5t62.5 -100.5t19.5 -108.5q0 -72 -28 -130.5t-68 -104.5t-86 -82t-83 -60l226 -293q47 72 62 160t15 166 h230q0 -55 -9.5 -121t-30 -133.5t-52 -133t-78.5 -120.5l225 -287h-278l-103 131q-33 -33 -64.5 -60.5t-70.5 -48t-89 -31.5t-118 -11q-121 0 -209 33.5t-146 91t-86 133t-28 157.5zM348 406q0 -57 21.5 -101.5t55.5 -74t74 -44t74 -14.5q68 0 122.5 30.5t90.5 78.5 l-288 376q-59 -37 -104.5 -94t-45.5 -157zM430 1135q0 -39 13.5 -73t33 -63.5t42 -55t42.5 -48.5q31 20 62.5 45t57.5 56.5t43 68.5t17 82q0 70 -44 106.5t-109 36.5q-66 0 -112 -42t-46 -113z" />
<glyph unicode="'" horiz-adv-x="532" d="M164 1028v508h205v-508h-205z" />
<glyph unicode="(" horiz-adv-x="606" d="M90 573q0 147 24.5 270.5t64.5 234t91.5 212t102.5 201.5h196q-113 -207 -185.5 -443.5t-72.5 -474.5t73 -474t185 -443h-196q-51 100 -102.5 201.5t-91.5 212t-64.5 233.5t-24.5 270z" />
<glyph unicode=")" horiz-adv-x="606" d="M37 -344q113 207 185.5 443.5t72.5 473.5q0 238 -72.5 474.5t-185.5 443.5h196q53 -100 103.5 -201.5t90.5 -212t64.5 -233.5t24.5 -271q0 -147 -24.5 -270t-64.5 -233.5t-90 -212t-104 -201.5h-196z" />
<glyph unicode="*" horiz-adv-x="1062" d="M170 1098l63 182l238 -119l-35 269h197l-33 -269l234 119l61 -182l-256 -62l178 -211l-160 -108l-122 241l-123 -241l-160 108l176 211z" />
<glyph unicode="+" horiz-adv-x="1228" d="M96 428v180h428v428h181v-428h428v-180h-428v-428h-181v428h-428z" />
<glyph unicode="," horiz-adv-x="532" d="M37 -246l106 508h246l-156 -508h-196z" />
<glyph unicode="-" horiz-adv-x="645" d="M86 477v209h473v-209h-473z" />
<glyph unicode="." horiz-adv-x="532" d="M143 0v266h246v-266h-246z" />
<glyph unicode="/" horiz-adv-x="569" d="M16 -20l357 1470h180l-365 -1470h-172z" />
<glyph unicode="0" horiz-adv-x="1064" d="M82 715q0 133 18.5 264t68.5 235.5t138 170t225 65.5q139 0 227.5 -65.5t137.5 -170t67.5 -235.5t18.5 -264q0 -131 -18.5 -263.5t-67.5 -236.5t-137 -169.5t-228 -65.5q-137 0 -225 65.5t-138 169.5t-68.5 236.5t-18.5 263.5zM336 715q0 -119 8 -218.5t29.5 -171 t60.5 -112.5t98 -41q61 0 99.5 41t60 112.5t29.5 171t8 218.5t-8 218t-29.5 172t-59.5 112.5t-100 39.5q-59 0 -98 -39.5t-60.5 -112.5t-29.5 -172t-8 -218z" />
<glyph unicode="1" horiz-adv-x="1064" d="M168 1126l348 304h217v-1430h-254v1128l-190 -178z" />
<glyph unicode="2" horiz-adv-x="1064" d="M127 0v211l106 121q78 90 155 179t137.5 177t98.5 174t38 166q0 102 -54.5 157.5t-140.5 55.5q-57 0 -103.5 -11t-80 -28.5t-59 -36t-44.5 -32.5l-22 235q49 29 134 55.5t220 26.5q115 0 192.5 -29.5t127 -82t71 -122t21.5 -147.5q0 -96 -37 -197.5t-100.5 -204 t-145.5 -204t-172 -199.5l-51 -55h520v-209h-811z" />
<glyph unicode="3" horiz-adv-x="1064" d="M102 41l15 219q41 -20 112.5 -46t176.5 -26q113 0 187.5 62.5t74.5 175.5q0 61 -25 103t-64.5 67t-89 35t-98.5 10q-61 0 -104 -6v199h43q61 0 120.5 9t106.5 32.5t76 65.5t29 110q0 49 -19.5 84.5t-51.5 59.5t-74 35t-87 11q-66 0 -136.5 -19.5t-135.5 -50.5l-15 220 q53 16 137.5 37.5t206.5 21.5q94 0 173 -23.5t135.5 -69.5t88 -112.5t31.5 -154.5q0 -94 -30.5 -157t-73.5 -99.5t-90 -54t-82 -21.5v-4q49 -14 102.5 -34t96.5 -57.5t71.5 -98t28.5 -156.5q0 -106 -41 -187.5t-109.5 -134.5t-157.5 -79.5t-188 -26.5q-106 0 -189 19 t-151 42z" />
<glyph unicode="4" horiz-adv-x="1064" d="M61 297v238l496 895h287v-941h160v-192h-160v-297h-238v297h-545zM250 489h356v678h-4z" />
<glyph unicode="5" horiz-adv-x="1064" d="M135 39l17 219q53 -29 114.5 -49.5t151.5 -20.5q129 0 199.5 78t70.5 201q0 53 -16.5 101t-52 85t-90 58.5t-130.5 21.5q-88 0 -146 -17.5t-91 -27.5v742h723v-201h-494v-328q27 8 66 13.5t96 5.5q82 0 154.5 -30t126 -86t85 -138t31.5 -187q0 -119 -34.5 -211 t-97 -156.5t-153 -98t-200.5 -33.5q-111 0 -195 21.5t-135 37.5z" />
<glyph unicode="6" horiz-adv-x="1064" d="M90 647q0 158 25.5 303.5t88 256t170 177t271.5 66.5q98 0 162.5 -17.5t101.5 -31.5l-14 -213q-37 16 -93.5 38.5t-142.5 22.5q-104 0 -167.5 -50t-98.5 -122.5t-48 -155.5t-17 -149l4 -4q37 59 97 101t165 42q76 0 144.5 -28.5t120.5 -87t84 -145.5t32 -204 q0 -211 -108.5 -338.5t-311.5 -127.5q-137 0 -226 52t-142.5 143t-75 213t-21.5 259zM352 442q0 -127 44 -198.5t141 -71.5q98 0 141 71.5t43 198.5q0 117 -43 193t-141 76q-92 0 -138.5 -73t-46.5 -196z" />
<glyph unicode="7" horiz-adv-x="1064" d="M127 1221v209h811v-230l-428 -1200h-283l465 1221h-565z" />
<glyph unicode="8" horiz-adv-x="1064" d="M82 377q0 119 56.5 203t140.5 125l71 34q-106 53 -166.5 130t-60.5 202q0 92 30.5 163t86 119t131 72.5t166.5 24.5q78 0 151.5 -22.5t129.5 -66.5t90 -108.5t34 -150.5q0 -119 -64.5 -206t-168.5 -140l53 -29q92 -49 156.5 -133t64.5 -209q0 -102 -35 -179t-96 -127 t-144 -74.5t-180 -24.5q-104 0 -186 30.5t-140.5 83.5t-89 126t-30.5 157zM336 379q0 -92 50 -152.5t146 -60.5q98 0 147.5 61.5t49.5 159.5q0 84 -36 134t-122 100l-53 32l-49 -35q-68 -47 -100.5 -102t-32.5 -137zM360 1067q0 -45 16.5 -80t44.5 -62.5t61.5 -51 t68.5 -44.5q25 20 51.5 44t50 53.5t38 66.5t14.5 84q0 88 -39 137.5t-129 49.5q-76 0 -126.5 -52.5t-50.5 -144.5z" />
<glyph unicode="9" horiz-adv-x="1064" d="M90 983q0 213 108.5 340t311.5 127q137 0 226 -52t142.5 -143.5t75 -212t21.5 -260.5q0 -158 -24.5 -303t-88 -255.5t-171 -177t-271.5 -66.5q-98 0 -162.5 17t-101.5 32l14 213q37 -16 93 -39t143 -23q104 0 167.5 50.5t98.5 123t49 155.5t16 148l-4 5 q-37 -59 -97.5 -101.5t-164.5 -42.5q-76 0 -144.5 28.5t-120.5 87t-84 145.5t-32 204zM344 987q0 -117 43 -192.5t141 -75.5q92 0 138.5 72.5t46.5 195.5q0 127 -44 198.5t-141 71.5q-98 0 -141 -71.5t-43 -198.5z" />
<glyph unicode=":" horiz-adv-x="532" d="M143 0v266h246v-266h-246zM143 788v267h246v-267h-246z" />
<glyph unicode=";" horiz-adv-x="532" d="M37 -246l106 508h246l-156 -508h-196zM143 788v267h246v-267h-246z" />
<glyph unicode="&#x3c;" horiz-adv-x="1228" d="M96 438v160l1037 457v-181l-807 -356l807 -354v-180z" />
<glyph unicode="=" horiz-adv-x="1228" d="M96 213v180h1037v-180h-1037zM96 643v180h1037v-180h-1037z" />
<glyph unicode="&#x3e;" horiz-adv-x="1228" d="M96 -16v180l807 354l-807 356v181l1037 -457v-160z" />
<glyph unicode="?" horiz-adv-x="948" d="M139 1395q31 12 114 33.5t193 21.5q199 0 305.5 -95t106.5 -249q0 -100 -44 -186t-97 -164q-53 -80 -97.5 -155t-44.5 -155v-28h-221v82q0 74 38 139.5t85 130.5q45 63 82 128t37 136q0 102 -61.5 154.5t-147.5 52.5q-74 0 -139.5 -24.5t-95.5 -45.5zM342 0v258h246v-258 h-246z" />
<glyph unicode="@" horiz-adv-x="1638" d="M84 715q0 166 59.5 302t164 232.5t243.5 148.5t299 52q145 0 273 -43t223.5 -122t151.5 -190.5t56 -248.5q0 -145 -56 -252t-135 -177.5t-165 -104t-145 -33.5q-47 0 -83 27.5t-40 86.5h-4q-43 -43 -109.5 -78.5t-152.5 -35.5q-61 0 -111.5 24.5t-85.5 68.5t-54.5 103.5 t-19.5 128.5q0 115 37 210t98.5 162.5t142.5 105.5t167 38q72 0 135 -31.5t104 -107.5l33 106h152l-138 -505q-6 -23 -13 -50.5t-7 -46.5q0 -51 53 -51q41 0 84 30t79 82t59.5 121.5t23.5 147.5q0 119 -44 211t-120 154.5t-176 94.5t-215 32q-131 0 -240.5 -46.5 t-187.5 -127t-121 -189t-43 -233.5q0 -145 46 -255t128 -183.5t193.5 -111.5t242.5 -38q139 0 260 47t197 133h152q-100 -154 -264 -238.5t-353 -84.5q-164 0 -305 49t-245.5 143t-164 231.5t-59.5 311.5zM573 631q0 -80 45.5 -130t116.5 -50q61 0 111.5 30.5t86.5 78.5 t55.5 106.5t19.5 111.5q0 74 -48.5 122t-136.5 48q-51 0 -96 -25.5t-79 -69.5t-54.5 -101.5t-20.5 -120.5z" />
<glyph unicode="A" horiz-adv-x="1251" d="M12 0l480 1430h286l461 -1430h-270l-101 344h-491l-103 -344h-262zM432 545h381l-180 667h-4z" />
<glyph unicode="B" horiz-adv-x="1138" d="M152 0v1430h417q223 0 326.5 -85t103.5 -268q0 -86 -23.5 -143t-59 -94t-77.5 -58.5t-77 -33.5v-5q41 -8 89 -29.5t88 -60.5t66.5 -100t26.5 -152q0 -98 -33.5 -172.5t-93 -125t-140.5 -77t-177 -26.5h-436zM406 201h145q106 0 162.5 59t56.5 160q0 94 -52 156.5 t-175 62.5h-137v-438zM406 831h135q98 0 151 62.5t53 150.5q0 92 -58 142.5t-152 50.5h-129v-406z" />
<glyph unicode="C" horiz-adv-x="1138" d="M94 715q0 158 42 292t123 232t203 154.5t281 56.5q111 0 194 -21.5t124 -37.5l-14 -236q-41 20 -105.5 49t-165.5 29q-82 0 -154.5 -28.5t-128 -91t-88 -161t-32.5 -237.5t32.5 -237.5t88 -161t128 -91t154.5 -28.5q96 0 160.5 20.5t110.5 52.5l14 -239q-41 -23 -126 -37 t-183 -14q-162 0 -286 56t-206 154.5t-124 233.5t-42 291z" />
<glyph unicode="D" horiz-adv-x="1290" d="M139 0v1430h373q338 0 511 -179.5t173 -535.5q0 -180 -51 -314.5t-142.5 -223.5t-216 -133t-274.5 -44h-373zM401 201h88q221 0 325 139t104 375t-103.5 375t-325.5 139h-88v-1028z" />
<glyph unicode="E" d="M152 0v1430h751v-209h-489v-381h463v-209h-463v-422h510v-209h-772z" />
<glyph unicode="F" horiz-adv-x="948" d="M152 0v1430h722v-209h-460v-390h440v-208h-440v-623h-262z" />
<glyph unicode="G" horiz-adv-x="1327" d="M94 715q0 160 45 294t134 232t220.5 153.5t303.5 55.5q123 0 215 -21.5t133 -39.5l-15 -236q-63 39 -147 63.5t-182 24.5q-104 0 -184 -41t-134.5 -111.5t-82 -167t-27.5 -206.5q0 -242 106.5 -384.5t306.5 -142.5q47 0 86 8.5t66 18.5v385h-217v201h463v-748 q-55 -29 -150.5 -51t-236.5 -22q-172 0 -303.5 55t-220.5 153.5t-134 232.5t-45 294z" />
<glyph unicode="H" horiz-adv-x="1251" d="M152 0v1430h262v-582h424v582h262v-1430h-262v631h-424v-631h-262z" />
<glyph unicode="I" horiz-adv-x="569" d="M154 0v1430h262v-1430h-262z" />
<glyph unicode="J" horiz-adv-x="720" d="M41 14v226q23 -10 51.5 -18.5t69.5 -8.5q47 0 78.5 16.5t50 45t26 65.5t7.5 80v1010h262v-1012q0 -117 -29 -200t-78 -136t-113.5 -77.5t-136.5 -24.5q-47 0 -100 9t-88 25z" />
<glyph unicode="K" horiz-adv-x="1175" d="M152 0v1430h262v-607h6l407 607h301l-485 -674l524 -756h-317l-430 672h-6v-672h-262z" />
<glyph unicode="L" horiz-adv-x="909" d="M139 0v1430h262v-1221h471v-209h-733z" />
<glyph unicode="M" horiz-adv-x="1669" d="M150 0v1430h391l295 -1068h4l301 1068h379v-1430h-238v1192h-4l-358 -1192h-187l-342 1192h-4v-1192h-237z" />
<glyph unicode="N" horiz-adv-x="1327" d="M150 0v1430h311l475 -1123h4v1123h238v-1430h-314l-473 1114h-4v-1114h-237z" />
<glyph unicode="O" horiz-adv-x="1327" d="M94 715q0 193 47 332t126 228t182.5 132t214.5 43t214 -43t182 -132t126 -228.5t47 -331.5q0 -193 -47 -332t-126 -228t-182.5 -132t-213.5 -43q-111 0 -214.5 43t-182.5 132t-126 228t-47 332zM365 715q0 -147 23.5 -250t63.5 -165t95 -91t117 -29q61 0 116.5 29t95 91 t63.5 164.5t24 250.5q0 147 -24 249.5t-63.5 165t-95 91t-116.5 28.5t-116.5 -28.5t-95.5 -91t-63.5 -165t-23.5 -249.5z" />
<glyph unicode="P" horiz-adv-x="1062" d="M139 0v1430h410q223 0 335.5 -115t112.5 -320t-112.5 -320.5t-335.5 -115.5h-148v-559h-262zM401 760h99q123 0 179 59.5t56 175.5q0 117 -56 175.5t-179 58.5h-99v-469z" />
<glyph unicode="Q" horiz-adv-x="1327" d="M94 715q0 193 47 332t126 228t182.5 132t214.5 43t214 -43t182 -132t126 -228.5t47 -331.5q0 -266 -86 -430t-219 -238l282 -319h-301l-200 252h-45q-111 0 -214.5 43t-182.5 132t-126 228t-47 332zM365 715q0 -147 23.5 -250t63.5 -165t95 -91t117 -29q61 0 116.5 29 t95 91t63.5 164.5t24 250.5q0 147 -24 249.5t-63.5 165t-95 91t-116.5 28.5t-116.5 -28.5t-95.5 -91t-63.5 -165t-23.5 -249.5z" />
<glyph unicode="R" horiz-adv-x="1138" d="M139 0v1430h447q96 0 174 -22t134 -68t87 -117.5t31 -169.5q0 -141 -78 -229.5t-199 -106.5v-6q20 -2 41 -10.5t41.5 -26t40 -49t35.5 -80.5l186 -545h-278l-142 465q-27 86 -77 117.5t-121 31.5h-60v-614h-262zM401 807h107q104 0 168.5 53t64.5 164q0 123 -61.5 164 t-171.5 41h-107v-422z" />
<glyph unicode="S" d="M100 1061q0 96 37 169t98.5 122t143.5 73.5t172 24.5q115 0 191.5 -20.5t107.5 -30.5l-12 -219q-47 18 -111.5 39.5t-157.5 21.5q-98 0 -148 -47t-50 -121q0 -39 12 -68.5t33.5 -51t48.5 -39t57 -33.5l154 -86q63 -35 109 -72t77 -81t46.5 -100.5t15.5 -131.5 q0 -109 -37 -190t-101.5 -134t-151.5 -79.5t-190 -26.5q-219 0 -325 63l14 233q39 -25 119 -56.5t184 -31.5q86 0 151.5 50.5t65.5 156.5q0 78 -45 121t-141 96l-133 74q-106 59 -170 147.5t-64 227.5z" />
<glyph unicode="T" horiz-adv-x="985" d="M43 1221v209h899v-209h-317v-1221h-263v1221h-319z" />
<glyph unicode="U" horiz-adv-x="1251" d="M139 504v926h262v-926q0 -178 55.5 -247t170.5 -69q113 0 168 69t55 247v926h262v-926q0 -141 -38 -240.5t-104.5 -163t-154.5 -92t-188 -28.5t-189.5 28.5t-156 92t-104.5 162.5t-38 241z" />
<glyph unicode="V" horiz-adv-x="1175" d="M16 1430h283l289 -1102h4l297 1102h270l-436 -1430h-277z" />
<glyph unicode="W" horiz-adv-x="1705" d="M29 1430h245l201 -1102h4l215 1102h320l213 -1102h4l209 1102h237l-295 -1430h-313l-213 1171h-4l-225 -1171h-310z" />
<glyph unicode="X" horiz-adv-x="1175" d="M12 0l426 758l-375 672h302l225 -461l264 461h281l-385 -672l413 -758h-299l-266 532l-297 -532h-289z" />
<glyph unicode="Y" horiz-adv-x="1138" d="M16 1430h283l279 -572l262 572h282l-422 -863v-567h-262v573z" />
<glyph unicode="Z" d="M74 0v229l563 992h-547v209h852v-218l-569 -1003h577v-209h-876z" />
<glyph unicode="[" horiz-adv-x="606" d="M152 -344v1835h372v-160h-176v-1515h176v-160h-372z" />
<glyph unicode="\" horiz-adv-x="569" d="M16 1450h181l356 -1470h-172z" />
<glyph unicode="]" horiz-adv-x="606" d="M82 -184h176v1515h-176v160h373v-1835h-373v160z" />
<glyph unicode="^" horiz-adv-x="1228" d="M123 602l405 828h172l406 -828h-180l-312 641l-311 -641h-180z" />
<glyph unicode="_" d="M0 -154h1024v-102h-1024v102z" />
<glyph unicode="`" horiz-adv-x="454" d="M-20 1466h237l131 -295h-160z" />
<glyph unicode="a" d="M59 293q0 109 42 177.5t116 109.5t175.5 56t221.5 15h52v39q0 39 -10.5 76t-34 64.5t-60.5 44t-92 16.5q-96 0 -174 -36t-115 -67l-14 205q53 25 132 51.5t202 26.5t201.5 -28.5t122.5 -84t61.5 -134.5t17.5 -177v-461q0 -57 5 -106t10 -80h-230q-10 31 -12 67.5t-2 75.5 h-4q-47 -63 -114 -111t-181 -48q-61 0 -118.5 20.5t-100.5 60t-70 97t-27 131.5zM297 317q0 -72 44 -116.5t118 -44.5q115 0 161 79.5t46 221.5v59h-23q-162 0 -254 -42t-92 -157z" />
<glyph unicode="b" horiz-adv-x="1099" d="M111 0q4 29 6 76t2 104v1356h254v-633h4q29 61 94.5 114.5t177.5 53.5q172 0 268.5 -142.5t96.5 -402.5q0 -111 -21.5 -209t-65.5 -171.5t-115 -117.5t-169 -44q-61 0 -107.5 15t-79 41t-55 58.5t-39.5 65.5h-6q0 -53 -2 -97t-6 -67h-237zM373 530q0 -74 10 -139 t33.5 -114.5t62.5 -78t94 -28.5q111 0 149 91t38 276q0 160 -42 254t-149 94q-51 0 -89 -27t-61.5 -74t-34.5 -111.5t-11 -142.5z" />
<glyph unicode="c" horiz-adv-x="872" d="M86 526q0 113 29.5 212.5t92 173t159 116.5t229.5 43q59 0 122.5 -14.5t98.5 -28.5l-14 -201q-35 16 -80 34t-98 18q-145 0 -211 -92.5t-66 -262.5q0 -74 17.5 -137t53.5 -110.5t90 -74t128 -26.5q47 0 100.5 17.5t79.5 33.5l14 -200q-45 -16 -108.5 -29.5t-140.5 -13.5 q-131 0 -224.5 43t-154 116.5t-89 172t-28.5 210.5z" />
<glyph unicode="d" horiz-adv-x="1099" d="M86 526q0 260 96.5 402.5t268.5 142.5q115 0 180 -53t92 -115h4v633h254v-1356q0 -57 2.5 -104t5.5 -76h-237q-4 23 -6.5 67t-2.5 97h-6q-14 -33 -37.5 -65.5t-56.5 -58.5t-79 -41t-107 -15q-98 0 -169 44t-115 117.5t-65.5 172t-21.5 208.5zM340 537q0 -184 38 -275.5 t148 -91.5q55 0 94 28.5t63 78t34 115t10 138.5q0 78 -11 142.5t-35 111.5t-60.5 74t-90.5 27q-106 0 -148 -94t-42 -254z" />
<glyph unicode="e" d="M86 512q0 119 29.5 221.5t86 177t137.5 117.5t181 43q86 0 162 -27.5t134 -93t92 -173t34 -269.5v-49h-610q0 -135 60.5 -212t207.5 -77q117 0 179.5 27.5t97.5 54.5l12 -201q-41 -16 -121 -41.5t-195 -25.5q-127 0 -219 43t-151.5 114.5t-88 168t-28.5 202.5zM332 618 h364q0 281 -176 281q-49 0 -85 -24.5t-59.5 -63.5t-33.5 -89t-10 -104z" />
<glyph unicode="f" horiz-adv-x="681" d="M20 868v187h177v215q0 57 14 109.5t50 92t94.5 64.5t144.5 25q51 0 98 -8.5t84 -16.5l-10 -184q-23 6 -47.5 11t-53.5 5q-55 0 -87.5 -36t-32.5 -95v-182h192v-187h-192v-868h-254v868h-177z" />
<glyph unicode="g" horiz-adv-x="1099" d="M86 524q0 109 20.5 208t66.5 175t117.5 120t176.5 44q57 0 100 -15.5t76 -40t57.5 -57t44.5 -67.5h9q0 41 3 82t5 82h229q-4 -41 -6 -83t-2 -83v-778q0 -123 -21.5 -227.5t-77 -179.5t-149.5 -117t-239 -42q-127 0 -221.5 24.5t-141.5 41.5l14 225q45 -25 128 -57.5 t184 -32.5q90 0 144 28.5t84 75t40 106.5t10 122v100h-4q-14 -31 -36.5 -62.5t-55.5 -57t-79 -42t-107 -16.5q-55 0 -120 22.5t-120 81t-92 160t-37 260.5zM348 539q0 -186 51.5 -269.5t114.5 -83.5q121 0 172 87t51 268q0 166 -56 253q-55 85 -145 85h-4q-100 -2 -142 -90 t-42 -250z" />
<glyph unicode="h" horiz-adv-x="1062" d="M115 0v1536h254v-616h6q16 25 37.5 51t51.5 48.5t72 37t101 14.5q90 0 149.5 -30.5t95.5 -85t51 -125t15 -150.5v-680h-254v633q0 123 -33.5 176t-111.5 53q-49 0 -84 -19.5t-56.5 -53t-30.5 -78.5t-9 -97v-614h-254z" />
<glyph unicode="i" horiz-adv-x="532" d="M135 1253v250h262v-250h-262zM139 0v1055h254v-1055h-254z" />
<glyph unicode="j" horiz-adv-x="532" d="M-37 -442l8 192q16 -4 35 -8t41 -4q23 0 39 5t28.5 23.5t18.5 53.5t6 96v1139h254v-1098q0 -104 -12 -182t-43 -129.5t-84 -76t-135 -24.5q-45 0 -85 4.5t-71 8.5zM135 1253v250h262v-250h-262z" />
<glyph unicode="k" d="M115 0v1536h254v-903h6l309 422h270l-370 -477l405 -578h-295l-319 514h-6v-514h-254z" />
<glyph unicode="l" horiz-adv-x="532" d="M139 0v1536h254v-1536h-254z" />
<glyph unicode="m" horiz-adv-x="1593" d="M100 1055h254q2 -41 5 -83t3 -83h5q14 31 37.5 63.5t55.5 58t75 43t98 17.5q68 0 113 -18.5t75.5 -44t48 -54t29.5 -51.5q18 29 43 58.5t58.5 54t78.5 40t103 15.5q86 0 144 -29.5t93 -84t50.5 -132t15.5 -174.5v-651h-254v666q0 98 -32 147t-103 49q-43 0 -75 -18.5 t-53.5 -49t-32.5 -71.5t-11 -84v-639h-254v666q0 98 -32 147t-103 49q-43 0 -75 -18.5t-53.5 -49t-33 -71.5t-11.5 -84v-639h-253v883q0 57 -2.5 100t-6.5 72z" />
<glyph unicode="n" horiz-adv-x="1062" d="M106 1055h238q2 -41 5 -81t3 -81h6h-2q14 25 36 55.5t54.5 58t79.5 46t111 18.5q90 0 149.5 -30.5t95.5 -85t51 -125t15 -150.5v-680h-254v633q0 123 -33.5 176t-111.5 53q-49 0 -84 -19.5t-56.5 -53t-30.5 -78.5t-9 -97v-614h-254v881q0 49 -2 94t-7 80z" />
<glyph unicode="o" horiz-adv-x="1099" d="M86 528q0 162 42 266.5t109.5 166t150.5 86t163 24.5t163 -24.5t149.5 -86t108.5 -166t42 -266.5q0 -166 -42 -271t-108.5 -166.5t-149.5 -84t-163 -22.5t-163 22.5t-150.5 84t-109.5 166.5t-42 271zM348 528q0 -66 8.5 -131t32 -117.5t62 -84t100.5 -31.5q61 0 100 31.5 t61.5 84t31 118t8.5 130.5q0 66 -8.5 131.5t-31 116.5t-61.5 83t-100 32t-100 -32t-62.5 -83t-32 -116.5t-8.5 -131.5z" />
<glyph unicode="p" horiz-adv-x="1099" d="M111 1055h237q4 -23 6 -67t2 -97h6q16 35 39 66.5t55.5 57t79 41t107.5 15.5q98 0 169 -44t115 -117.5t65.5 -172t21.5 -209.5q0 -260 -96.5 -402t-268.5 -142q-113 0 -178 53t-94 115h-4v-594h-254v1316q0 57 -2 104.5t-6 76.5zM373 524q0 -76 11 -141.5t34.5 -112.5 t61.5 -73.5t89 -26.5q106 0 148.5 94t42.5 254q0 184 -38 275.5t-149 91.5q-55 0 -94 -29t-62.5 -78t-33.5 -114.5t-10 -139.5z" />
<glyph unicode="q" horiz-adv-x="1099" d="M86 528q0 111 21.5 209.5t65.5 172t114.5 117.5t169.5 44q61 0 107 -15.5t79 -41t56.5 -57t37.5 -66.5h6q0 53 2.5 97t6.5 67h237q-4 -29 -6 -76t-2 -105v-1316h-254v594h-4q-27 -61 -92.5 -114.5t-179.5 -53.5q-172 0 -268.5 142t-96.5 402zM340 518q0 -160 42 -254 t148 -94q53 0 90 26.5t61 73.5t35 113t11 141q0 74 -10 139.5t-34 114.5t-62.5 78t-94.5 29q-111 0 -148.5 -91.5t-37.5 -275.5z" />
<glyph unicode="r" horiz-adv-x="720" d="M115 1055h229q2 -47 5 -96.5t3 -96.5h4q12 31 33 68t53.5 67.5t77.5 52t105 21.5q12 0 22 -2t21 -4v-238q-16 4 -34 7.5t-38 3.5q-39 0 -78 -13.5t-70.5 -43t-51 -80t-19.5 -123.5v-578h-254v881q0 49 -2 94t-6 80z" />
<glyph unicode="s" horiz-adv-x="833" d="M74 35l12 211q16 -6 42 -17.5t60.5 -23.5t75.5 -20.5t86 -8.5q70 0 117 21.5t47 83.5q0 31 -21.5 61.5t-91.5 71.5l-104 61q-39 25 -79 50.5t-72.5 59t-52 80t-19.5 107.5q0 55 25.5 108.5t72.5 95.5t114.5 68.5t151.5 26.5q102 0 174 -18.5t90 -24.5l-14 -197 q-47 18 -100 33t-123 15q-78 0 -112 -28t-34 -75q0 -43 32 -71.5t87 -63.5l125 -80q98 -63 147.5 -118.5t49.5 -147.5q0 -74 -29 -131.5t-81 -97t-124.5 -61t-158.5 -21.5q-98 0 -175 17t-118 34z" />
<glyph unicode="t" horiz-adv-x="720" d="M41 868v187h168v217l254 78v-295h211v-187h-211v-546q0 -86 29.5 -116t85.5 -30q35 0 58 7t38 16v-181q-29 -14 -71 -24t-99 -10q-141 0 -218 70.5t-77 236.5v577h-168z" />
<glyph unicode="u" horiz-adv-x="1062" d="M115 375v680h254v-633q0 -123 35.5 -176t115.5 -53q51 0 85 21.5t53.5 57t27.5 81.5t8 98v604h254v-881q0 -49 2 -94t6 -80h-237q-2 41 -5 81t-3 81l-6 2l2 -2q-18 -29 -41 -60.5t-55.5 -57.5t-78 -43t-106.5 -17q-90 0 -149.5 30.5t-95.5 85t-51 125t-15 150.5z" />
<glyph unicode="v" horiz-adv-x="985" d="M20 1055h263l215 -813h4l217 813h246l-324 -1055h-299z" />
<glyph unicode="w" horiz-adv-x="1517" d="M10 1055h262l170 -822h4l179 822h288l174 -822h5l170 822h245l-280 -1055h-277l-188 821h-4l-185 -821h-278z" />
<glyph unicode="x" horiz-adv-x="948" d="M4 0l318 569l-291 486h286l166 -338l174 338h263l-293 -486l317 -569h-280l-195 391l-195 -391h-270z" />
<glyph unicode="y" horiz-adv-x="948" d="M10 1055h262l213 -797h4l203 797h246l-385 -1256q-33 -109 -103.5 -181.5t-197.5 -72.5q-51 0 -92 8.5t-70 18.5l14 195q23 -8 45.5 -14.5t51.5 -6.5h6q53 0 81 35q29 37 54 119l18 90z" />
<glyph unicode="z" horiz-adv-x="833" d="M57 0v219l451 643h-436v193h690v-217l-443 -645h457v-193h-719z" />
<glyph unicode="{" horiz-adv-x="681" d="M70 502v143q33 0 64.5 14.5t57 40t42 63.5t16.5 87v383q0 63 20.5 111.5t52 81t73.5 49t85 16.5h160v-143h-92q-31 0 -51.5 -13.5t-31.5 -36t-15.5 -50t-4.5 -56.5v-371q0 -68 -20 -112.5t-49 -73.5t-59.5 -42t-51.5 -18v-4q20 -2 51 -14t60 -40t49 -76t20 -122v-364 q0 -29 4.5 -56.5t15.5 -50t31.5 -36t51.5 -13.5h92v-143h-160q-43 0 -85 16.5t-73.5 49t-52 80.5t-20.5 112v373q0 53 -16.5 93t-42 66.5t-57.5 41t-64 14.5z" />
<glyph unicode="|" horiz-adv-x="454" d="M137 -512v2048h180v-2048h-180z" />
<glyph unicode="}" horiz-adv-x="681" d="M41 -201h92q31 0 51.5 13.5t31.5 36t15.5 50t4.5 56.5v371q0 68 20 112.5t49 73.5t59.5 42t51.5 17v4q-20 2 -51 14.5t-60 40t-49 76t-20 121.5v365q0 29 -4.5 56.5t-15.5 50t-31.5 36t-51.5 13.5h-92v143h160q43 0 85 -16.5t73.5 -49t52 -81t20.5 -111.5v-373 q0 -51 16.5 -92t42 -67.5t57.5 -41t64 -14.5v-143q-33 0 -64.5 -14.5t-57 -40t-42 -63.5t-16.5 -87v-383q0 -63 -20.5 -111.5t-52 -81t-73.5 -49t-85 -16.5h-160v143z" />
<glyph unicode="~" horiz-adv-x="1228" d="M141 498q18 31 41 61.5t53.5 55t70.5 41t91 16.5t106.5 -20.5t112.5 -47.5q57 -25 112.5 -46t105.5 -21q61 0 103 46t77 99l73 -143q-18 -25 -40.5 -55.5t-53 -57.5t-70.5 -44t-92 -17q-55 0 -111 21.5t-112 45.5q-55 27 -108.5 47.5t-104.5 20.5q-61 0 -103 -46 t-77 -100z" />
<glyph unicode="&#xa1;" horiz-adv-x="757" d="M248 -375l33 1008h196l33 -1008h-262zM256 797v258h246v-258h-246z" />
<glyph unicode="&#xa2;" horiz-adv-x="1064" d="M160 526q0 113 29.5 212.5t92 173t159 116.5t229.5 43h4l35 234h102l-37 -242q37 -6 66.5 -16.5t50.5 -18.5l-14 -201q-27 12 -60 26.5t-69 20.5l-105 -690q31 -8 68 -8q47 0 100 17.5t80 33.5l14 -200q-70 -25 -145.5 -34t-147.5 -9l-37 -246h-102l39 262 q-92 23 -158.5 72t-109.5 117.5t-63.5 155.5t-20.5 181zM422 524q0 -98 30.5 -176t94.5 -123l98 654q-117 -16 -170 -108.5t-53 -246.5z" />
<glyph unicode="&#xa3;" horiz-adv-x="1064" d="M111 0v201h145v479h-145v160h145v114q0 84 15.5 171t61.5 160t134 119t231 46q66 0 131.5 -11.5t124.5 -25.5l-16 -203q-59 25 -106.5 36t-116.5 11q-68 0 -111 -23.5t-67.5 -65.5t-33.5 -97t-9 -119v-112h317v-160h-317v-479h460v-201h-843z" />
<glyph unicode="&#xa4;" horiz-adv-x="1064" d="M41 326l106 106q-45 59 -69.5 131t-24.5 152t24.5 152.5t69.5 129.5l-106 107l102 102l107 -106q59 45 132 69.5t150 24.5q80 0 152 -24.5t131 -69.5l107 106l102 -102l-106 -107q45 -59 69.5 -130.5t24.5 -151.5t-24.5 -151.5t-69.5 -131.5l106 -106l-102 -103l-107 107 q-59 -45 -131 -69.5t-152 -24.5q-78 0 -150.5 24.5t-131.5 69.5l-107 -107zM213 715q0 -68 24.5 -127.5t67.5 -104.5t101 -70.5t126 -25.5t126.5 25.5t101.5 70.5t67.5 104.5t24.5 127.5t-24.5 127t-67.5 104t-101.5 70.5t-126.5 25.5t-126 -25.5t-101 -70.5t-67.5 -104.5 t-24.5 -126.5z" />
<glyph unicode="&#xa5;" horiz-adv-x="1064" d="M18 1430h263l251 -572l252 572h263l-318 -672h238v-152h-312v-155h312v-152h-312v-299h-245v299h-312v152h312v155h-312v152h242z" />
<glyph unicode="&#xa6;" horiz-adv-x="454" d="M137 358h180v-716h-180v716zM137 666v716h180v-716h-180z" />
<glyph unicode="&#xa7;" horiz-adv-x="1062" d="M141 625q0 49 19.5 91t48.5 76.5t59.5 59.5t55.5 39q-53 43 -95.5 110.5t-42.5 157.5q0 59 23.5 111.5t70 92.5t114 63.5t155.5 23.5q111 0 191.5 -21.5t115.5 -37.5l-22 -197q-47 23 -111 46.5t-150 23.5q-68 0 -108.5 -34t-40.5 -87q0 -51 40 -91t111 -81l109 -64 q45 -25 87 -52.5t76 -61t54.5 -78.5t20.5 -105q0 -49 -14.5 -92t-38 -81t-51 -69.5t-56.5 -58.5q45 -33 87 -90t42 -149q0 -66 -24.5 -126.5t-76 -106.5t-129 -73.5t-184.5 -27.5q-57 0 -109.5 8t-95.5 20.5t-74.5 24.5t-50.5 21l23 200q23 -10 53.5 -25.5t69.5 -28.5 t82 -23.5t88 -10.5q72 0 123 36t51 103q0 61 -41 100.5t-117 86.5l-137 84q-86 53 -143.5 120.5t-57.5 172.5zM362 651q0 -59 44.5 -108t109.5 -86l113 -62q29 35 50 71t21 95q0 72 -36.5 113t-122.5 92l-95 53q-29 -29 -56.5 -65.5t-27.5 -102.5z" />
<glyph unicode="&#xa8;" horiz-adv-x="454" d="M-43 1235v225h197v-225h-197zM301 1235v225h197v-225h-197z" />
<glyph unicode="&#xa9;" horiz-adv-x="1638" d="M84 715q0 152 58.5 286t157.5 234t233.5 157.5t285.5 57.5q152 0 286 -57.5t234.5 -157.5t157.5 -234.5t57 -285.5q0 -152 -57 -286t-157.5 -233.5t-234.5 -157.5t-286 -58t-286 58t-233 157.5t-157.5 233.5t-58.5 286zM256 715q0 -121 44 -227.5t120 -185.5t178 -125 t221 -46t221.5 46t178 125t119.5 185.5t44 227.5t-44 227.5t-119.5 185t-178 124.5t-221.5 46t-221 -46t-178 -124.5t-120 -185t-44 -227.5zM420 715q0 96 27.5 177t80 140.5t129 93t174.5 33.5q68 0 129.5 -18.5t110.5 -56t81 -95t40 -135.5h-152q-16 74 -71.5 118 t-134.5 44q-125 0 -189.5 -85t-64.5 -212q0 -135 66.5 -222t191.5 -87q84 0 138 46t64 128h152q-8 -78 -40 -137.5t-80 -99.5t-108.5 -60.5t-125.5 -20.5q-100 0 -178 35t-131.5 94.5t-81 142.5t-27.5 177z" />
<glyph unicode="&#xaa;" horiz-adv-x="720" d="M68 983q0 61 28.5 104t78.5 69t118.5 37t148.5 11h29v23q0 43 -28.5 73.5t-94.5 30.5q-61 0 -112.5 -16.5t-73.5 -34.5l-10 123q35 16 88 31.5t141 15.5q78 0 129 -17.5t81 -50t41 -80t11 -106.5v-276q0 -35 3 -60.5t7 -48.5h-159q-4 16 -6.5 37.5t-2.5 44.5h-6 q-31 -39 -74 -64.5t-118 -25.5q-43 0 -83 11t-70 33.5t-48 56.5t-18 79zM240 1001q0 -43 27.5 -65.5t74.5 -22.5q70 0 99.5 45.5t29.5 122.5v29h-14q-39 0 -78 -6t-69.5 -19.5t-50 -34t-19.5 -49.5z" />
<glyph unicode="&#xab;" horiz-adv-x="1062" d="M127 530l217 424h205l-201 -424l201 -424h-205zM489 530l218 424h204l-200 -424l200 -424h-204z" />
<glyph unicode="&#xac;" horiz-adv-x="1228" d="M96 643v180h1037v-610h-181v430h-856z" />
<glyph unicode="&#xad;" horiz-adv-x="645" d="M86 477v209h473v-209h-473z" />
<glyph unicode="&#xae;" horiz-adv-x="1638" d="M84 715q0 152 58.5 286t157.5 234t233.5 157.5t285.5 57.5q152 0 286 -57.5t234.5 -157.5t157.5 -234.5t57 -285.5q0 -152 -57 -286t-157.5 -233.5t-234.5 -157.5t-286 -58t-286 58t-233 157.5t-157.5 233.5t-58.5 286zM256 715q0 -121 44 -227.5t120 -185.5t178 -125 t221 -46t221.5 46t178 125t119.5 185.5t44 227.5t-44 227.5t-119.5 185t-178 124.5t-221.5 46t-221 -46t-178 -124.5t-120 -185t-44 -227.5zM530 301v838h295q184 0 259 -55.5t75 -194.5q0 -109 -55 -170.5t-160 -77.5l223 -340h-180l-211 334h-86v-334h-160zM690 770h160 q68 0 108.5 23.5t40.5 101.5q0 68 -39.5 88.5t-113.5 20.5h-156v-234z" />
<glyph unicode="&#xaf;" horiz-adv-x="454" d="M-57 1247v152h569v-152h-569z" />
<glyph unicode="&#xb0;" horiz-adv-x="819" d="M117 1157q0 61 22.5 114.5t62.5 93.5t93 62.5t115 22.5q61 0 114.5 -22.5t93 -62.5t62 -93t22.5 -115q0 -61 -22.5 -114.5t-62 -93.5t-93 -62.5t-114.5 -22.5t-114.5 22.5t-93.5 62.5t-62.5 93.5t-22.5 114.5zM260 1157q0 -61 44 -105t106 -44q61 0 105 44t44 105 t-44 105.5t-105 44.5t-105.5 -44.5t-44.5 -105.5z" />
<glyph unicode="&#xb1;" horiz-adv-x="1228" d="M96 0v180h1037v-180h-1037zM96 555v180h428v301h181v-301h428v-180h-428v-301h-181v301h-428z" />
<glyph unicode="&#xb2;" horiz-adv-x="692" d="M76 578v137l65 69q49 53 99.5 106.5t90.5 102.5t64.5 96.5t24.5 88.5q0 61 -34 95t-89 34q-72 0 -113 -21.5t-65 -36.5l-15 152q33 16 88.5 32.5t151.5 16.5q76 0 128 -18.5t84 -49t46 -72.5t14 -89q0 -57 -24.5 -118t-64.5 -121t-93 -120.5t-112 -116.5l-15 -16h305 v-151h-536z" />
<glyph unicode="&#xb3;" horiz-adv-x="692" d="M61 606l11 142q31 -12 78 -27.5t114 -15.5q72 0 117 36.5t45 96.5q0 37 -15.5 60.5t-39 37.5t-53 19.5t-60.5 5.5q-47 0 -72 -9v138q27 -10 72 -11q20 0 49 5.5t54.5 20.5t44 40.5t18.5 64.5q0 53 -42 79t-99 26q-45 0 -91.5 -12.5t-89.5 -30.5l-12 141q37 10 93.5 23.5 t142.5 13.5q123 0 200.5 -55.5t77.5 -161.5q0 -57 -19.5 -94t-48 -59.5t-59.5 -32t-53 -13.5v-4q33 -8 67.5 -19.5t64.5 -34t48.5 -58t18.5 -93.5q0 -63 -27 -111t-72 -81t-104.5 -48.5t-124.5 -15.5q-74 0 -130 11.5t-104 25.5z" />
<glyph unicode="&#xb4;" horiz-adv-x="454" d="M106 1171l132 295h237l-209 -295h-160z" />
<glyph unicode="&#xb5;" horiz-adv-x="1062" d="M115 -442v1497h254v-633q0 -123 35.5 -176t115.5 -53q51 0 85 21.5t53.5 57t27.5 81.5t8 98v604h254v-881q0 -49 2 -94t6 -80h-237q-2 41 -5 81t-3 81l-6 2l2 -2q-18 -31 -43 -62.5t-57 -57.5t-72.5 -42t-90.5 -16q-45 0 -75 24v-450h-254z" />
<glyph unicode="&#xb6;" horiz-adv-x="1228" d="M88 1049q0 104 36 176.5t96.5 118t138 66t161.5 20.5h529v-1674h-197v1522h-217v-1522h-197v926q-63 0 -125.5 21.5t-112.5 66.5t-81 114.5t-31 164.5z" />
<glyph unicode="&#xb7;" horiz-adv-x="530" d="M109 582q0 66 46 111.5t111 45.5q66 0 112 -46t46 -111q0 -66 -46 -112t-112 -46t-111.5 46t-45.5 112z" />
<glyph unicode="&#xb8;" horiz-adv-x="454" d="M12 -414l33 82q31 -10 63.5 -19t79.5 -9q51 0 79 23.5t28 60.5q0 35 -26.5 55t-67.5 20q-29 0 -47.5 -4t-32.5 -10l-37 35l63 180h91l-41 -127q16 4 34.5 8t44.5 4q86 0 132.5 -43t46.5 -108q0 -49 -21.5 -84t-54.5 -58.5t-74 -35t-78 -11.5q-66 0 -125 12.5t-90 28.5z " />
<glyph unicode="&#xb9;" horiz-adv-x="692" d="M98 1253l230 183h164v-858h-181v669l-123 -108z" />
<glyph unicode="&#xba;" horiz-adv-x="720" d="M49 1126q0 96 28.5 159t74 99.5t100.5 51t108 14.5t108.5 -14.5t100.5 -51t74 -99t29 -159.5q0 -96 -29 -158.5t-74 -99.5t-100 -51t-109 -14q-53 0 -108 14t-100.5 51t-74 99.5t-28.5 158.5zM229 1126q0 -39 6.5 -76.5t21.5 -65.5t40 -45t63 -17q39 0 64 17t40 45 t21.5 65.5t6.5 76.5q0 41 -6.5 78t-21.5 64.5t-40 45t-64 17.5t-63.5 -17.5t-39.5 -45t-21.5 -64.5t-6.5 -78z" />
<glyph unicode="&#xbb;" horiz-adv-x="1062" d="M152 106l200 424l-200 424h204l217 -424l-217 -424h-204zM514 106l201 424l-201 424h205l217 -424l-217 -424h-205z" />
<glyph unicode="&#xbc;" horiz-adv-x="1593" d="M61 1253l230 183h164v-858h-181v669l-122 -108zM360 -70l641 1569h160l-641 -1569h-160zM889 170v152l317 536h221v-553h105v-135h-105v-170h-172v170h-366zM1024 305h231v393h-4z" />
<glyph unicode="&#xbd;" horiz-adv-x="1593" d="M61 1253l230 183h164v-858h-181v669l-122 -108zM350 -70l641 1569h160l-641 -1569h-160zM991 -2v137l66 70q49 53 99 106.5t90 102.5t64.5 96t24.5 88q0 61 -33.5 95t-89.5 34q-72 0 -112.5 -21.5t-65.5 -35.5l-14 151q33 16 88 32.5t152 16.5q76 0 128 -18t83.5 -49 t46 -73t14.5 -89q0 -57 -24.5 -117.5t-64.5 -121t-93.5 -121t-112.5 -115.5l-14 -16h305v-152h-537z" />
<glyph unicode="&#xbe;" horiz-adv-x="1593" d="M61 606l11 142q31 -12 78 -27.5t114 -15.5q72 0 117 36.5t45 96.5q0 37 -15.5 60.5t-39 37.5t-53 19.5t-60.5 5.5q-47 0 -72 -9v138q27 -10 72 -11q20 0 49 5.5t54.5 20.5t44 40.5t18.5 64.5q0 53 -42 79t-99 26q-45 0 -91.5 -12.5t-89.5 -30.5l-12 141q37 10 93.5 23.5 t142.5 13.5q123 0 200.5 -55.5t77.5 -161.5q0 -57 -19.5 -94t-48 -59.5t-59.5 -32t-53 -13.5v-4q33 -8 67.5 -19.5t64.5 -34t48.5 -58t18.5 -93.5q0 -63 -27 -111t-72 -81t-104.5 -48.5t-124.5 -15.5q-74 0 -130 11.5t-104 25.5zM408 -70l641 1569h159l-641 -1569h-159z M889 170v152l317 536h221v-553h105v-135h-105v-170h-172v170h-366zM1024 305h231v393h-4z" />
<glyph unicode="&#xbf;" horiz-adv-x="948" d="M90 -51q0 100 44 186t97 164q53 80 97.5 154.5t44.5 154.5v29h221v-82q0 -74 -38 -139.5t-85 -130.5q-45 -63 -82 -128t-37 -137q0 -102 61.5 -154t147.5 -52q74 0 139.5 24.5t96.5 44.5l12 -223q-31 -12 -114 -33.5t-193 -21.5q-199 0 -305.5 95t-106.5 249zM360 797 v258h246v-258h-246z" />
<glyph unicode="&#xc0;" horiz-adv-x="1251" d="M12 0l480 1430h286l461 -1430h-270l-101 344h-491l-103 -344h-262zM379 1792h237l131 -295h-160zM432 545h381l-180 667h-4z" />
<glyph unicode="&#xc1;" horiz-adv-x="1251" d="M12 0l480 1430h286l461 -1430h-270l-101 344h-491l-103 -344h-262zM432 545h381l-180 667h-4zM505 1497l132 295h237l-209 -295h-160z" />
<glyph unicode="&#xc2;" horiz-adv-x="1251" d="M12 0l480 1430h286l461 -1430h-270l-101 344h-491l-103 -344h-262zM331 1497l187 295h221l182 -295h-186l-111 179l-112 -179h-181zM432 545h381l-180 667h-4z" />
<glyph unicode="&#xc3;" horiz-adv-x="1251" d="M12 0l480 1430h286l461 -1430h-270l-101 344h-491l-103 -344h-262zM319 1520q0 27 8.5 66.5t30 77.5t59 66t95.5 30q35 0 67.5 -11.5t62 -24t56.5 -23.5t49 -11q31 0 45.5 24.5t14.5 55.5h127q0 -23 -8.5 -63t-30 -79.5t-58.5 -68.5t-94 -29q-31 0 -59.5 11.5t-57 23.5 t-56.5 23.5t-56 11.5q-39 0 -57.5 -23.5t-18.5 -56.5h-119zM432 545h381l-180 667h-4z" />
<glyph unicode="&#xc4;" horiz-adv-x="1251" d="M12 0l480 1430h286l461 -1430h-270l-101 344h-491l-103 -344h-262zM356 1561v225h197v-225h-197zM432 545h381l-180 667h-4zM700 1561v225h197v-225h-197z" />
<glyph unicode="&#xc5;" horiz-adv-x="1251" d="M12 0l480 1430h286l461 -1430h-270l-101 344h-491l-103 -344h-262zM424 1706q0 45 17.5 85t47 69.5t69.5 47t85 17.5t85 -17.5t70 -47t47 -69.5t17 -85t-17 -85t-47 -69.5t-70 -47t-85 -17.5t-85 17.5t-69.5 47t-47 69.5t-17.5 85zM432 545h381l-180 667h-4zM527 1706 q0 -47 34.5 -82t81.5 -35t82 35t35 82t-35 82t-82 35t-81.5 -35t-34.5 -82z" />
<glyph unicode="&#xc6;" horiz-adv-x="1705" d="M16 0l682 1430h879v-209h-461v-381h434v-209h-434v-422h479v-209h-725v344h-417l-158 -344h-279zM539 545h331v704h-6z" />
<glyph unicode="&#xc7;" horiz-adv-x="1138" d="M94 715q0 158 42 292t123 232t203 154.5t281 56.5q111 0 194 -21.5t124 -37.5l-14 -236q-41 20 -105.5 49t-165.5 29q-82 0 -154.5 -28.5t-128 -91t-88 -161t-32.5 -237.5t32.5 -237.5t88 -161t128 -91t154.5 -28.5q96 0 160.5 20.5t110.5 52.5l14 -239q-41 -23 -126 -37 t-183 -14h-25.5t-26.5 2l-34 -109q16 4 34.5 8t44.5 4q86 0 132.5 -43t46.5 -108q0 -49 -21.5 -84t-54.5 -58.5t-74 -35t-78 -11.5q-66 0 -125 12.5t-90 28.5l33 82q31 -10 63.5 -19t79.5 -9q51 0 79 23.5t28 60.5q0 35 -26.5 55t-67.5 20q-29 0 -47.5 -4t-32.5 -10l-37 35 l61 172q-129 23 -226 86t-162.5 158.5t-98.5 217t-33 261.5z" />
<glyph unicode="&#xc8;" d="M152 0v1430h751v-209h-489v-381h463v-209h-463v-422h510v-209h-772zM285 1792h237l131 -295h-160z" />
<glyph unicode="&#xc9;" d="M152 0v1430h751v-209h-489v-381h463v-209h-463v-422h510v-209h-772zM411 1497l132 295h237l-209 -295h-160z" />
<glyph unicode="&#xca;" d="M152 0v1430h751v-209h-489v-381h463v-209h-463v-422h510v-209h-772zM237 1497l187 295h221l182 -295h-186l-111 179l-112 -179h-181z" />
<glyph unicode="&#xcb;" d="M152 0v1430h751v-209h-489v-381h463v-209h-463v-422h510v-209h-772zM262 1561v225h197v-225h-197zM606 1561v225h197v-225h-197z" />
<glyph unicode="&#xcc;" horiz-adv-x="569" d="M37 1792h237l131 -295h-160zM154 0v1430h262v-1430h-262z" />
<glyph unicode="&#xcd;" horiz-adv-x="569" d="M154 0v1430h262v-1430h-262zM163 1497l132 295h237l-209 -295h-160z" />
<glyph unicode="&#xce;" horiz-adv-x="569" d="M-11 1497l187 295h221l182 -295h-186l-111 179l-112 -179h-181zM154 0v1430h262v-1430h-262z" />
<glyph unicode="&#xcf;" horiz-adv-x="569" d="M14 1561v225h197v-225h-197zM154 0v1430h262v-1430h-262zM358 1561v225h197v-225h-197z" />
<glyph unicode="&#xd0;" horiz-adv-x="1290" d="M0 651v172h139v607h373q338 0 511 -179.5t173 -535.5q0 -180 -51 -314.5t-142.5 -223.5t-216 -133t-274.5 -44h-373v651h-139zM401 201h88q221 0 325 139t104 375t-103.5 375t-325.5 139h-88v-406h267v-172h-267v-450z" />
<glyph unicode="&#xd1;" horiz-adv-x="1327" d="M150 0v1430h311l475 -1123h4v1123h238v-1430h-314l-473 1114h-4v-1114h-237zM356 1520q0 27 8.5 66.5t30 77.5t59 66t95.5 30q35 0 67.5 -11.5t62 -24t56.5 -23.5t49 -11q31 0 45.5 24.5t14.5 55.5h127q0 -23 -8.5 -63t-30 -79.5t-58.5 -68.5t-94 -29q-31 0 -59.5 11.5 t-57 23.5t-56.5 23.5t-56 11.5q-39 0 -57.5 -23.5t-18.5 -56.5h-119z" />
<glyph unicode="&#xd2;" horiz-adv-x="1327" d="M94 715q0 193 47 332t126 228t182.5 132t214.5 43t214 -43t182 -132t126 -228.5t47 -331.5q0 -193 -47 -332t-126 -228t-182.5 -132t-213.5 -43q-111 0 -214.5 43t-182.5 132t-126 228t-47 332zM365 715q0 -147 23.5 -250t63.5 -165t95 -91t117 -29q61 0 116.5 29t95 91 t63.5 164.5t24 250.5q0 147 -24 249.5t-63.5 165t-95 91t-116.5 28.5t-116.5 -28.5t-95.5 -91t-63.5 -165t-23.5 -249.5zM416 1792h237l131 -295h-160z" />
<glyph unicode="&#xd3;" horiz-adv-x="1327" d="M94 715q0 193 47 332t126 228t182.5 132t214.5 43t214 -43t182 -132t126 -228.5t47 -331.5q0 -193 -47 -332t-126 -228t-182.5 -132t-213.5 -43q-111 0 -214.5 43t-182.5 132t-126 228t-47 332zM365 715q0 -147 23.5 -250t63.5 -165t95 -91t117 -29q61 0 116.5 29t95 91 t63.5 164.5t24 250.5q0 147 -24 249.5t-63.5 165t-95 91t-116.5 28.5t-116.5 -28.5t-95.5 -91t-63.5 -165t-23.5 -249.5zM542 1497l132 295h237l-209 -295h-160z" />
<glyph unicode="&#xd4;" horiz-adv-x="1327" d="M94 715q0 193 47 332t126 228t182.5 132t214.5 43t214 -43t182 -132t126 -228.5t47 -331.5q0 -193 -47 -332t-126 -228t-182.5 -132t-213.5 -43q-111 0 -214.5 43t-182.5 132t-126 228t-47 332zM365 715q0 -147 23.5 -250t63.5 -165t95 -91t117 -29q61 0 116.5 29t95 91 t63.5 164.5t24 250.5q0 147 -24 249.5t-63.5 165t-95 91t-116.5 28.5t-116.5 -28.5t-95.5 -91t-63.5 -165t-23.5 -249.5zM368 1497l187 295h221l182 -295h-186l-111 179l-112 -179h-181z" />
<glyph unicode="&#xd5;" horiz-adv-x="1327" d="M94 715q0 193 47 332t126 228t182.5 132t214.5 43t214 -43t182 -132t126 -228.5t47 -331.5q0 -193 -47 -332t-126 -228t-182.5 -132t-213.5 -43q-111 0 -214.5 43t-182.5 132t-126 228t-47 332zM356 1520q0 27 8.5 66.5t30 77.5t59 66t95.5 30q35 0 67.5 -11.5t62 -24 t56.5 -23.5t49 -11q31 0 45.5 24.5t14.5 55.5h127q0 -23 -8.5 -63t-30 -79.5t-58.5 -68.5t-94 -29q-31 0 -59.5 11.5t-57 23.5t-56.5 23.5t-56 11.5q-39 0 -57.5 -23.5t-18.5 -56.5h-119zM365 715q0 -147 23.5 -250t63.5 -165t95 -91t117 -29q61 0 116.5 29t95 91 t63.5 164.5t24 250.5q0 147 -24 249.5t-63.5 165t-95 91t-116.5 28.5t-116.5 -28.5t-95.5 -91t-63.5 -165t-23.5 -249.5z" />
<glyph unicode="&#xd6;" horiz-adv-x="1327" d="M94 715q0 193 47 332t126 228t182.5 132t214.5 43t214 -43t182 -132t126 -228.5t47 -331.5q0 -193 -47 -332t-126 -228t-182.5 -132t-213.5 -43q-111 0 -214.5 43t-182.5 132t-126 228t-47 332zM365 715q0 -147 23.5 -250t63.5 -165t95 -91t117 -29q61 0 116.5 29t95 91 t63.5 164.5t24 250.5q0 147 -24 249.5t-63.5 165t-95 91t-116.5 28.5t-116.5 -28.5t-95.5 -91t-63.5 -165t-23.5 -249.5zM393 1561v225h197v-225h-197zM737 1561v225h197v-225h-197z" />
<glyph unicode="&#xd7;" horiz-adv-x="1228" d="M139 170l348 348l-348 348l127 127l348 -348l349 348l127 -127l-349 -348l349 -348l-127 -127l-349 350l-348 -350z" />
<glyph unicode="&#xd8;" horiz-adv-x="1327" d="M51 27l162 202q-55 88 -87 208t-32 278q0 193 47 332t126 228t182.5 132t214.5 43q109 0 208 -40t177 -126l145 182l82 -63l-162 -203q55 -90 87 -210t32 -275q0 -193 -47 -332t-126 -228t-182.5 -132t-213.5 -43q-109 0 -208.5 39.5t-176.5 125.5l-146 -182zM365 715 q0 -78 7 -143.5t19 -116.5l504 637q-41 86 -100.5 121.5t-130.5 35.5q-61 0 -116.5 -28.5t-95.5 -91t-63.5 -165t-23.5 -249.5zM432 340q41 -86 100.5 -123t131.5 -37q61 0 116.5 29t95 91t63.5 164.5t24 250.5q0 156 -27 260z" />
<glyph unicode="&#xd9;" horiz-adv-x="1251" d="M139 504v926h262v-926q0 -178 55.5 -247t170.5 -69q113 0 168 69t55 247v926h262v-926q0 -141 -38 -240.5t-104.5 -163t-154.5 -92t-188 -28.5t-189.5 28.5t-156 92t-104.5 162.5t-38 241zM379 1792h237l131 -295h-160z" />
<glyph unicode="&#xda;" horiz-adv-x="1251" d="M139 504v926h262v-926q0 -178 55.5 -247t170.5 -69q113 0 168 69t55 247v926h262v-926q0 -141 -38 -240.5t-104.5 -163t-154.5 -92t-188 -28.5t-189.5 28.5t-156 92t-104.5 162.5t-38 241zM505 1497l132 295h237l-209 -295h-160z" />
<glyph unicode="&#xdb;" horiz-adv-x="1251" d="M139 504v926h262v-926q0 -178 55.5 -247t170.5 -69q113 0 168 69t55 247v926h262v-926q0 -141 -38 -240.5t-104.5 -163t-154.5 -92t-188 -28.5t-189.5 28.5t-156 92t-104.5 162.5t-38 241zM331 1497l187 295h221l182 -295h-186l-111 179l-112 -179h-181z" />
<glyph unicode="&#xdc;" horiz-adv-x="1251" d="M139 504v926h262v-926q0 -178 55.5 -247t170.5 -69q113 0 168 69t55 247v926h262v-926q0 -141 -38 -240.5t-104.5 -163t-154.5 -92t-188 -28.5t-189.5 28.5t-156 92t-104.5 162.5t-38 241zM356 1561v225h197v-225h-197zM700 1561v225h197v-225h-197z" />
<glyph unicode="&#xdd;" horiz-adv-x="1138" d="M16 1430h283l279 -572l262 572h282l-422 -863v-567h-262v573zM448 1497l132 295h237l-209 -295h-160z" />
<glyph unicode="&#xde;" horiz-adv-x="1062" d="M139 0v1430h262v-228h148q223 0 335.5 -114.5t112.5 -319.5t-112.5 -320.5t-335.5 -115.5h-148v-332h-262zM401 532h99q123 0 179 59.5t56 176.5t-56 175t-179 58h-99v-469z" />
<glyph unicode="&#xdf;" horiz-adv-x="1099" d="M115 0v1106q0 236 117.5 345.5t312.5 109.5q102 0 178 -30t127 -82t75.5 -123t24.5 -155q0 -98 -24.5 -160.5t-60.5 -101.5t-76.5 -58.5t-75.5 -31.5v-4q66 -6 120 -38t92 -82t59.5 -115.5t21.5 -139.5q0 -102 -25 -186t-76 -144.5t-130 -93t-185 -32.5q-39 0 -72 5 t-51 17l12 187q10 -6 29.5 -11.5t42.5 -5.5q104 0 148 70.5t44 181.5q0 98 -27.5 154.5t-66.5 84t-82 35t-75 7.5v192q27 0 63.5 6t69 32t56.5 77t24 139q0 98 -43.5 158.5t-129.5 60.5q-88 0 -130 -58.5t-42 -166.5v-1149h-245z" />
<glyph unicode="&#xe0;" d="M59 293q0 109 42 177.5t116 109.5t175.5 56t221.5 15h52v39q0 39 -10.5 76t-34 64.5t-60.5 44t-92 16.5q-96 0 -174 -36t-115 -67l-14 205q53 25 132 51.5t202 26.5t201.5 -28.5t122.5 -84t61.5 -134.5t17.5 -177v-461q0 -57 5 -106t10 -80h-230q-10 31 -12 67.5t-2 75.5 h-4q-47 -63 -114 -111t-181 -48q-61 0 -118.5 20.5t-100.5 60t-70 97t-27 131.5zM265 1466h237l131 -295h-160zM297 317q0 -72 44 -116.5t118 -44.5q115 0 161 79.5t46 221.5v59h-23q-162 0 -254 -42t-92 -157z" />
<glyph unicode="&#xe1;" d="M59 293q0 109 42 177.5t116 109.5t175.5 56t221.5 15h52v39q0 39 -10.5 76t-34 64.5t-60.5 44t-92 16.5q-96 0 -174 -36t-115 -67l-14 205q53 25 132 51.5t202 26.5t201.5 -28.5t122.5 -84t61.5 -134.5t17.5 -177v-461q0 -57 5 -106t10 -80h-230q-10 31 -12 67.5t-2 75.5 h-4q-47 -63 -114 -111t-181 -48q-61 0 -118.5 20.5t-100.5 60t-70 97t-27 131.5zM297 317q0 -72 44 -116.5t118 -44.5q115 0 161 79.5t46 221.5v59h-23q-162 0 -254 -42t-92 -157zM391 1171l132 295h237l-209 -295h-160z" />
<glyph unicode="&#xe2;" d="M59 293q0 109 42 177.5t116 109.5t175.5 56t221.5 15h52v39q0 39 -10.5 76t-34 64.5t-60.5 44t-92 16.5q-96 0 -174 -36t-115 -67l-14 205q53 25 132 51.5t202 26.5t201.5 -28.5t122.5 -84t61.5 -134.5t17.5 -177v-461q0 -57 5 -106t10 -80h-230q-10 31 -12 67.5t-2 75.5 h-4q-47 -63 -114 -111t-181 -48q-61 0 -118.5 20.5t-100.5 60t-70 97t-27 131.5zM217 1171l187 295h221l182 -295h-186l-111 179l-112 -179h-181zM297 317q0 -72 44 -116.5t118 -44.5q115 0 161 79.5t46 221.5v59h-23q-162 0 -254 -42t-92 -157z" />
<glyph unicode="&#xe3;" d="M59 293q0 109 42 177.5t116 109.5t175.5 56t221.5 15h52v39q0 39 -10.5 76t-34 64.5t-60.5 44t-92 16.5q-96 0 -174 -36t-115 -67l-14 205q53 25 132 51.5t202 26.5t201.5 -28.5t122.5 -84t61.5 -134.5t17.5 -177v-461q0 -57 5 -106t10 -80h-230q-10 31 -12 67.5t-2 75.5 h-4q-47 -63 -114 -111t-181 -48q-61 0 -118.5 20.5t-100.5 60t-70 97t-27 131.5zM205 1194q0 27 8.5 66.5t30 77.5t59 66t95.5 30q35 0 67.5 -11.5t62 -24t56.5 -23.5t49 -11q31 0 45.5 24.5t14.5 55.5h127q0 -23 -8.5 -63t-30 -79.5t-58.5 -68.5t-94 -29q-31 0 -59.5 11.5 t-57 23.5t-56.5 23.5t-56 11.5q-39 0 -57.5 -23.5t-18.5 -56.5h-119zM297 317q0 -72 44 -116.5t118 -44.5q115 0 161 79.5t46 221.5v59h-23q-162 0 -254 -42t-92 -157z" />
<glyph unicode="&#xe4;" d="M59 293q0 109 42 177.5t116 109.5t175.5 56t221.5 15h52v39q0 39 -10.5 76t-34 64.5t-60.5 44t-92 16.5q-96 0 -174 -36t-115 -67l-14 205q53 25 132 51.5t202 26.5t201.5 -28.5t122.5 -84t61.5 -134.5t17.5 -177v-461q0 -57 5 -106t10 -80h-230q-10 31 -12 67.5t-2 75.5 h-4q-47 -63 -114 -111t-181 -48q-61 0 -118.5 20.5t-100.5 60t-70 97t-27 131.5zM242 1235v225h197v-225h-197zM297 317q0 -72 44 -116.5t118 -44.5q115 0 161 79.5t46 221.5v59h-23q-162 0 -254 -42t-92 -157zM586 1235v225h197v-225h-197z" />
<glyph unicode="&#xe5;" d="M59 293q0 109 42 177.5t116 109.5t175.5 56t221.5 15h52v39q0 39 -10.5 76t-34 64.5t-60.5 44t-92 16.5q-96 0 -174 -36t-115 -67l-14 205q53 25 132 51.5t202 26.5t201.5 -28.5t122.5 -84t61.5 -134.5t17.5 -177v-461q0 -57 5 -106t10 -80h-230q-10 31 -12 67.5t-2 75.5 h-4q-47 -63 -114 -111t-181 -48q-61 0 -118.5 20.5t-100.5 60t-70 97t-27 131.5zM297 317q0 -72 44 -116.5t118 -44.5q115 0 161 79.5t46 221.5v59h-23q-162 0 -254 -42t-92 -157zM334 1360q0 45 17.5 85t47 69.5t69.5 47t85 17.5t85 -17.5t70 -47t47 -69.5t17 -85t-17 -85 t-47 -69.5t-70 -47t-85 -17.5t-85 17.5t-69.5 47t-47 69.5t-17.5 85zM437 1360q0 -47 34.5 -82t81.5 -35t82 35t35 82t-35 82t-82 35t-81.5 -35t-34.5 -82z" />
<glyph unicode="&#xe6;" horiz-adv-x="1589" d="M80 293q0 109 41 177.5t113.5 109.5t171 56t210.5 15h48v45q0 37 -10.5 72t-32 62.5t-54 44t-80.5 16.5q-45 0 -89 -10.5t-80.5 -25.5t-66.5 -32.5t-48 -34.5l-15 205q53 25 132 51.5t202 26.5q207 0 285 -143q45 68 112.5 105.5t167.5 37.5q86 0 162 -27.5t134.5 -93 t92 -173t33.5 -269.5v-49h-608q2 -135 61.5 -212t200.5 -77q117 0 179.5 27.5t97.5 54.5l12 -201q-41 -16 -121 -41.5t-194 -25.5q-162 0 -252 53t-127 151h-4q-63 -98 -142.5 -151t-216.5 -53q-61 0 -118.5 20.5t-100.5 60t-69.5 97t-26.5 131.5zM317 317 q0 -72 44.5 -116.5t115.5 -44.5q98 0 142.5 79.5t44.5 221.5v59h-37q-68 0 -124.5 -9t-98.5 -32.5t-64.5 -61.5t-22.5 -96zM901 618h363q0 281 -177 281q-49 0 -84.5 -24.5t-58 -63.5t-33 -89t-10.5 -104z" />
<glyph unicode="&#xe7;" horiz-adv-x="872" d="M86 526q0 113 29.5 212.5t92 173t159 116.5t229.5 43q59 0 122.5 -14.5t98.5 -28.5l-14 -201q-35 16 -80 34t-98 18q-145 0 -211 -92.5t-66 -262.5q0 -74 17.5 -137t53.5 -110.5t90 -74t128 -26.5q47 0 100.5 17.5t79.5 33.5l14 -200q-45 -16 -108.5 -29.5t-140.5 -13.5 h-13l-37 -111q16 4 35 8t45 4q86 0 132.5 -43t46.5 -108q0 -49 -21.5 -84t-54.5 -58.5t-74 -35t-78 -11.5q-66 0 -125 12.5t-90 28.5l33 82q31 -10 63.5 -19t79.5 -9q51 0 79 23.5t28 60.5q0 35 -26.5 55t-67.5 20q-29 0 -47.5 -4t-32.5 -10l-37 35l61 172q-104 16 -179 64 t-123 120t-70.5 161t-22.5 189z" />
<glyph unicode="&#xe8;" d="M86 512q0 119 29.5 221.5t86 177t137.5 117.5t181 43q86 0 162 -27.5t134 -93t92 -173t34 -269.5v-49h-610q0 -135 60.5 -212t207.5 -77q117 0 179.5 27.5t97.5 54.5l12 -201q-41 -16 -121 -41.5t-195 -25.5q-127 0 -219 43t-151.5 114.5t-88 168t-28.5 202.5zM265 1466 h237l131 -295h-160zM332 618h364q0 281 -176 281q-49 0 -85 -24.5t-59.5 -63.5t-33.5 -89t-10 -104z" />
<glyph unicode="&#xe9;" d="M86 512q0 119 29.5 221.5t86 177t137.5 117.5t181 43q86 0 162 -27.5t134 -93t92 -173t34 -269.5v-49h-610q0 -135 60.5 -212t207.5 -77q117 0 179.5 27.5t97.5 54.5l12 -201q-41 -16 -121 -41.5t-195 -25.5q-127 0 -219 43t-151.5 114.5t-88 168t-28.5 202.5zM332 618 h364q0 281 -176 281q-49 0 -85 -24.5t-59.5 -63.5t-33.5 -89t-10 -104zM391 1171l132 295h237l-209 -295h-160z" />
<glyph unicode="&#xea;" d="M86 512q0 119 29.5 221.5t86 177t137.5 117.5t181 43q86 0 162 -27.5t134 -93t92 -173t34 -269.5v-49h-610q0 -135 60.5 -212t207.5 -77q117 0 179.5 27.5t97.5 54.5l12 -201q-41 -16 -121 -41.5t-195 -25.5q-127 0 -219 43t-151.5 114.5t-88 168t-28.5 202.5zM217 1171 l187 295h221l182 -295h-186l-111 179l-112 -179h-181zM332 618h364q0 281 -176 281q-49 0 -85 -24.5t-59.5 -63.5t-33.5 -89t-10 -104z" />
<glyph unicode="&#xeb;" d="M86 512q0 119 29.5 221.5t86 177t137.5 117.5t181 43q86 0 162 -27.5t134 -93t92 -173t34 -269.5v-49h-610q0 -135 60.5 -212t207.5 -77q117 0 179.5 27.5t97.5 54.5l12 -201q-41 -16 -121 -41.5t-195 -25.5q-127 0 -219 43t-151.5 114.5t-88 168t-28.5 202.5zM242 1235 v225h197v-225h-197zM332 618h364q0 281 -176 281q-49 0 -85 -24.5t-59.5 -63.5t-33.5 -89t-10 -104zM586 1235v225h197v-225h-197z" />
<glyph unicode="&#xec;" horiz-adv-x="532" d="M19 1466h237l131 -295h-160zM139 0v1055h254v-1055h-254z" />
<glyph unicode="&#xed;" horiz-adv-x="532" d="M139 0v1055h254v-1055h-254zM145 1171l132 295h237l-209 -295h-160z" />
<glyph unicode="&#xee;" horiz-adv-x="532" d="M-29 1171l187 295h221l182 -295h-186l-111 179l-112 -179h-181zM139 0v1055h254v-1055h-254z" />
<glyph unicode="&#xef;" horiz-adv-x="532" d="M-4 1235v225h197v-225h-197zM139 0v1055h254v-1055h-254zM340 1235v225h197v-225h-197z" />
<glyph unicode="&#xf0;" horiz-adv-x="1099" d="M86 528q0 162 42 266.5t107.5 166t143.5 86t151 24.5q78 0 122 -28.5t73 -67.5l4 4q-10 45 -32.5 95t-50.5 96.5t-57.5 84t-51.5 56.5l-177 -90l-67 77l158 82q-35 27 -80 48.5t-78 31.5l162 101q41 -12 87 -36t87 -52l172 88l67 -78l-151 -78q41 -37 92 -96.5t97 -156.5 t77 -237.5t31 -336.5q0 -186 -42 -303t-108.5 -181.5t-149.5 -87t-163 -22.5t-163 22.5t-150.5 84t-109.5 166.5t-42 271zM348 528q0 -66 8.5 -131t32 -117.5t62 -84t100.5 -31.5q61 0 100 31.5t61.5 84t31 118t8.5 130.5q0 66 -8.5 131.5t-31 116.5t-61.5 83t-100 32 t-100 -32t-62.5 -83t-32 -116.5t-8.5 -131.5z" />
<glyph unicode="&#xf1;" horiz-adv-x="1062" d="M106 1055h238q2 -41 5 -81t3 -81h6h-2q14 25 36 55.5t54.5 58t79.5 46t111 18.5q90 0 149.5 -30.5t95.5 -85t51 -125t15 -150.5v-680h-254v633q0 123 -33.5 176t-111.5 53q-49 0 -84 -19.5t-56.5 -53t-30.5 -78.5t-9 -97v-614h-254v881q0 49 -2 94t-7 80zM225 1194 q0 27 8.5 66.5t30 77.5t59 66t95.5 30q35 0 67.5 -11.5t62 -24t56.5 -23.5t49 -11q31 0 45.5 24.5t14.5 55.5h127q0 -23 -8.5 -63t-30 -79.5t-58.5 -68.5t-94 -29q-31 0 -59.5 11.5t-57 23.5t-56.5 23.5t-56 11.5q-39 0 -57.5 -23.5t-18.5 -56.5h-119z" />
<glyph unicode="&#xf2;" horiz-adv-x="1099" d="M86 528q0 162 42 266.5t109.5 166t150.5 86t163 24.5t163 -24.5t149.5 -86t108.5 -166t42 -266.5q0 -166 -42 -271t-108.5 -166.5t-149.5 -84t-163 -22.5t-163 22.5t-150.5 84t-109.5 166.5t-42 271zM304 1466h237l131 -295h-160zM348 528q0 -66 8.5 -131t32 -117.5 t62 -84t100.5 -31.5q61 0 100 31.5t61.5 84t31 118t8.5 130.5q0 66 -8.5 131.5t-31 116.5t-61.5 83t-100 32t-100 -32t-62.5 -83t-32 -116.5t-8.5 -131.5z" />
<glyph unicode="&#xf3;" horiz-adv-x="1099" d="M86 528q0 162 42 266.5t109.5 166t150.5 86t163 24.5t163 -24.5t149.5 -86t108.5 -166t42 -266.5q0 -166 -42 -271t-108.5 -166.5t-149.5 -84t-163 -22.5t-163 22.5t-150.5 84t-109.5 166.5t-42 271zM348 528q0 -66 8.5 -131t32 -117.5t62 -84t100.5 -31.5q61 0 100 31.5 t61.5 84t31 118t8.5 130.5q0 66 -8.5 131.5t-31 116.5t-61.5 83t-100 32t-100 -32t-62.5 -83t-32 -116.5t-8.5 -131.5zM430 1171l132 295h237l-209 -295h-160z" />
<glyph unicode="&#xf4;" horiz-adv-x="1099" d="M86 528q0 162 42 266.5t109.5 166t150.5 86t163 24.5t163 -24.5t149.5 -86t108.5 -166t42 -266.5q0 -166 -42 -271t-108.5 -166.5t-149.5 -84t-163 -22.5t-163 22.5t-150.5 84t-109.5 166.5t-42 271zM256 1171l187 295h221l182 -295h-186l-111 179l-112 -179h-181z M348 528q0 -66 8.5 -131t32 -117.5t62 -84t100.5 -31.5q61 0 100 31.5t61.5 84t31 118t8.5 130.5q0 66 -8.5 131.5t-31 116.5t-61.5 83t-100 32t-100 -32t-62.5 -83t-32 -116.5t-8.5 -131.5z" />
<glyph unicode="&#xf5;" horiz-adv-x="1099" d="M86 528q0 162 42 266.5t109.5 166t150.5 86t163 24.5t163 -24.5t149.5 -86t108.5 -166t42 -266.5q0 -166 -42 -271t-108.5 -166.5t-149.5 -84t-163 -22.5t-163 22.5t-150.5 84t-109.5 166.5t-42 271zM244 1194q0 27 8.5 66.5t30 77.5t59 66t95.5 30q35 0 67.5 -11.5 t62 -24t56.5 -23.5t49 -11q31 0 45.5 24.5t14.5 55.5h127q0 -23 -8.5 -63t-30 -79.5t-58.5 -68.5t-94 -29q-31 0 -59.5 11.5t-57 23.5t-56.5 23.5t-56 11.5q-39 0 -57.5 -23.5t-18.5 -56.5h-119zM348 528q0 -66 8.5 -131t32 -117.5t62 -84t100.5 -31.5q61 0 100 31.5 t61.5 84t31 118t8.5 130.5q0 66 -8.5 131.5t-31 116.5t-61.5 83t-100 32t-100 -32t-62.5 -83t-32 -116.5t-8.5 -131.5z" />
<glyph unicode="&#xf6;" horiz-adv-x="1099" d="M86 528q0 162 42 266.5t109.5 166t150.5 86t163 24.5t163 -24.5t149.5 -86t108.5 -166t42 -266.5q0 -166 -42 -271t-108.5 -166.5t-149.5 -84t-163 -22.5t-163 22.5t-150.5 84t-109.5 166.5t-42 271zM281 1235v225h197v-225h-197zM348 528q0 -66 8.5 -131t32 -117.5 t62 -84t100.5 -31.5q61 0 100 31.5t61.5 84t31 118t8.5 130.5q0 66 -8.5 131.5t-31 116.5t-61.5 83t-100 32t-100 -32t-62.5 -83t-32 -116.5t-8.5 -131.5zM625 1235v225h197v-225h-197z" />
<glyph unicode="&#xf7;" horiz-adv-x="1228" d="M96 428v180h1037v-180h-1037zM457 94q0 66 46 112t111 46q66 0 112 -46t46 -112t-46 -111.5t-112 -45.5t-111.5 45.5t-45.5 111.5zM457 942q0 66 46 112t111 46q66 0 112 -46t46 -112t-46 -112t-112 -46t-111.5 46t-45.5 112z" />
<glyph unicode="&#xf8;" horiz-adv-x="1099" d="M86 16l102 129q-47 66 -74.5 159t-27.5 224q0 162 42 266.5t109.5 166t150.5 86t163 24.5q76 0 151.5 -21.5t141.5 -74.5l96 121l74 -58l-105 -131q47 -61 76 -154.5t29 -224.5q0 -166 -42 -271t-108.5 -166.5t-149.5 -84t-163 -22.5q-78 0 -156 20.5t-141 73.5l-94 -119 zM348 528q0 -41 3 -81.5t11 -79.5l340 428q-23 43 -59.5 69.5t-91.5 26.5q-61 0 -100 -32t-62.5 -83t-32 -116.5t-8.5 -131.5zM399 260q23 -43 60 -69.5t92 -26.5q61 0 100 31.5t61.5 84t31 118t8.5 130.5q0 41 -3.5 82t-11.5 78z" />
<glyph unicode="&#xf9;" horiz-adv-x="1062" d="M115 375v680h254v-633q0 -123 35.5 -176t115.5 -53q51 0 85 21.5t53.5 57t27.5 81.5t8 98v604h254v-881q0 -49 2 -94t6 -80h-237q-2 41 -5 81t-3 81l-6 2l2 -2q-18 -29 -41 -60.5t-55.5 -57.5t-78 -43t-106.5 -17q-90 0 -149.5 30.5t-95.5 85t-51 125t-15 150.5z M285 1466h237l131 -295h-160z" />
<glyph unicode="&#xfa;" horiz-adv-x="1062" d="M115 375v680h254v-633q0 -123 35.5 -176t115.5 -53q51 0 85 21.5t53.5 57t27.5 81.5t8 98v604h254v-881q0 -49 2 -94t6 -80h-237q-2 41 -5 81t-3 81l-6 2l2 -2q-18 -29 -41 -60.5t-55.5 -57.5t-78 -43t-106.5 -17q-90 0 -149.5 30.5t-95.5 85t-51 125t-15 150.5z M411 1171l132 295h237l-209 -295h-160z" />
<glyph unicode="&#xfb;" horiz-adv-x="1062" d="M115 375v680h254v-633q0 -123 35.5 -176t115.5 -53q51 0 85 21.5t53.5 57t27.5 81.5t8 98v604h254v-881q0 -49 2 -94t6 -80h-237q-2 41 -5 81t-3 81l-6 2l2 -2q-18 -29 -41 -60.5t-55.5 -57.5t-78 -43t-106.5 -17q-90 0 -149.5 30.5t-95.5 85t-51 125t-15 150.5z M237 1171l187 295h221l182 -295h-186l-111 179l-112 -179h-181z" />
<glyph unicode="&#xfc;" horiz-adv-x="1062" d="M115 375v680h254v-633q0 -123 35.5 -176t115.5 -53q51 0 85 21.5t53.5 57t27.5 81.5t8 98v604h254v-881q0 -49 2 -94t6 -80h-237q-2 41 -5 81t-3 81l-6 2l2 -2q-18 -29 -41 -60.5t-55.5 -57.5t-78 -43t-106.5 -17q-90 0 -149.5 30.5t-95.5 85t-51 125t-15 150.5z M262 1235v225h197v-225h-197zM606 1235v225h197v-225h-197z" />
<glyph unicode="&#xfd;" horiz-adv-x="948" d="M10 1055h262l213 -797h4l203 797h246l-385 -1256q-33 -109 -103.5 -181.5t-197.5 -72.5q-51 0 -92 8.5t-70 18.5l14 195q23 -8 45.5 -14.5t51.5 -6.5q57 -2 86.5 35t54.5 119l18 90zM354 1171l132 295h237l-209 -295h-160z" />
<glyph unicode="&#xfe;" horiz-adv-x="1099" d="M119 -442v1978h254v-645h4q16 35 37.5 66.5t54.5 57t76 41t98 15.5q98 0 169 -44t115 -117.5t65.5 -172t21.5 -209.5q0 -260 -96.5 -402t-268.5 -142q-113 0 -178 53t-94 115h-4v-594h-254zM373 524q0 -76 11 -141.5t34.5 -112.5t61.5 -73.5t89 -26.5q106 0 148.5 94 t42.5 254q0 184 -38 275.5t-149 91.5q-55 0 -94 -29t-62.5 -78t-33.5 -114.5t-10 -139.5z" />
<glyph unicode="&#xff;" horiz-adv-x="948" d="M10 1055h262l213 -797h4l203 797h246l-385 -1256q-33 -109 -103.5 -181.5t-197.5 -72.5q-51 0 -92 8.5t-70 18.5l14 195q23 -8 45.5 -14.5t51.5 -6.5q57 -2 86.5 35t54.5 119l18 90zM205 1235v225h197v-225h-197zM549 1235v225h197v-225h-197z" />
<glyph unicode="&#x152;" horiz-adv-x="1705" d="M94 713q0 158 38 292t116 231t195.5 151.5t275.5 54.5q72 0 145 -6q35 -2 72 -4t72 -2h587v-209h-467v-381h439v-209h-439v-422h488v-209h-676q-61 0 -129 -6q-33 -2 -64.5 -4t-66.5 -2q-168 0 -280.5 61.5t-180 162.5t-96.5 232t-29 269zM373 715q0 -104 14 -200.5 t54 -168.5t108.5 -115t175.5 -43q35 0 73 5.5t68 15.5v1012q-39 10 -80 15t-79 5q-102 0 -167 -43t-102 -114.5t-51 -168t-14 -200.5z" />
<glyph unicode="&#x153;" horiz-adv-x="1669" d="M86 528q0 162 42 266.5t109.5 166t150.5 86t163 24.5q43 0 89 -9t89 -30.5t80 -58.5t61 -92q96 190 308 190q86 0 161.5 -27.5t134 -93t92 -173t33.5 -269.5v-49h-610q0 -135 60.5 -212t207.5 -77q117 0 179.5 27.5t97.5 54.5l12 -201q-41 -16 -120.5 -41.5t-194.5 -25.5 q-78 0 -136.5 17t-100.5 44t-69.5 60.5t-45.5 64.5q-18 -43 -52 -78t-79.5 -59.5t-95.5 -36.5t-101 -12q-80 0 -163 22.5t-150.5 84t-109.5 166.5t-42 271zM348 528q0 -66 8.5 -131t32 -117.5t62 -84t100.5 -31.5q61 0 100 31.5t61.5 84t31 118t8.5 130.5q0 66 -8.5 131.5 t-31 116.5t-61.5 83t-100 32t-100 -32t-62.5 -83t-32 -116.5t-8.5 -131.5zM989 618h365q0 281 -176 281q-49 0 -85 -24.5t-59.5 -63.5t-34 -89t-10.5 -104z" />
<glyph unicode="&#x178;" horiz-adv-x="1138" d="M16 1430h283l279 -572l262 572h282l-422 -863v-567h-262v573zM299 1561v225h197v-225h-197zM643 1561v225h197v-225h-197z" />
<glyph unicode="&#x2c6;" horiz-adv-x="454" d="M-68 1171l187 295h221l182 -295h-186l-111 179l-112 -179h-181z" />
<glyph unicode="&#x2dc;" horiz-adv-x="454" d="M-80 1194q0 27 8.5 66.5t30 77.5t59 66t95.5 30q35 0 67.5 -11.5t62 -24t56.5 -23.5t49 -11q31 0 45.5 24.5t14.5 55.5h127q0 -23 -8.5 -63t-30 -79.5t-58.5 -68.5t-94 -29q-31 0 -59.5 11.5t-57 23.5t-56.5 23.5t-56 11.5q-39 0 -57.5 -23.5t-18.5 -56.5h-119z" />
<glyph unicode="&#x2000;" horiz-adv-x="962" />
<glyph unicode="&#x2001;" horiz-adv-x="1925" />
<glyph unicode="&#x2002;" horiz-adv-x="962" />
<glyph unicode="&#x2003;" horiz-adv-x="1925" />
<glyph unicode="&#x2004;" horiz-adv-x="641" />
<glyph unicode="&#x2005;" horiz-adv-x="481" />
<glyph unicode="&#x2006;" horiz-adv-x="320" />
<glyph unicode="&#x2007;" horiz-adv-x="320" />
<glyph unicode="&#x2008;" horiz-adv-x="240" />
<glyph unicode="&#x2009;" horiz-adv-x="385" />
<glyph unicode="&#x200a;" horiz-adv-x="106" />
<glyph unicode="&#x2010;" horiz-adv-x="645" d="M86 477v209h473v-209h-473z" />
<glyph unicode="&#x2011;" horiz-adv-x="645" d="M86 477v209h473v-209h-473z" />
<glyph unicode="&#x2012;" horiz-adv-x="645" d="M86 477v209h473v-209h-473z" />
<glyph unicode="&#x2013;" d="M0 492v180h1024v-180h-1024z" />
<glyph unicode="&#x2014;" horiz-adv-x="2048" d="M0 492v180h2048v-180h-2048z" />
<glyph unicode="&#x2018;" horiz-adv-x="532" d="M90 1028l156 508h196l-106 -508h-246z" />
<glyph unicode="&#x2019;" horiz-adv-x="532" d="M90 1028l107 508h245l-155 -508h-197z" />
<glyph unicode="&#x201a;" horiz-adv-x="532" d="M66 -246l106 508h246l-156 -508h-196z" />
<glyph unicode="&#x201c;" horiz-adv-x="1062" d="M174 1028l156 508h196l-106 -508h-246zM537 1028l155 508h197l-107 -508h-245z" />
<glyph unicode="&#x201d;" horiz-adv-x="1062" d="M174 1028l107 508h245l-155 -508h-197zM537 1028l106 508h246l-156 -508h-196z" />
<glyph unicode="&#x201e;" horiz-adv-x="1062" d="M174 -246l107 508h245l-155 -508h-197zM537 -246l106 508h246l-156 -508h-196z" />
<glyph unicode="&#x2022;" d="M154 715q0 74 27.5 139.5t76.5 114.5t114.5 76.5t139.5 27.5t139.5 -27.5t114.5 -76.5t76.5 -115t27.5 -139q0 -74 -27.5 -139.5t-76.5 -114.5t-114.5 -77t-139.5 -28t-139.5 28t-114.5 77t-76.5 114.5t-27.5 139.5z" />
<glyph unicode="&#x2026;" horiz-adv-x="2048" d="M219 0v266h246v-266h-246zM901 0v266h246v-266h-246zM1583 0v266h246v-266h-246z" />
<glyph unicode="&#x202f;" horiz-adv-x="385" />
<glyph unicode="&#x2039;" horiz-adv-x="606" d="M78 530l217 424h205l-201 -424l201 -424h-205z" />
<glyph unicode="&#x203a;" horiz-adv-x="606" d="M106 106l201 424l-201 424h205l217 -424l-217 -424h-205z" />
<glyph unicode="&#x205f;" horiz-adv-x="481" />
<glyph unicode="&#x2122;" horiz-adv-x="2048" d="M106 1278v152h680v-152h-260v-700h-159v700h-261zM987 578v852h246l223 -576l219 576h246v-852h-160v651h-4l-239 -651h-127l-240 651h-4v-651h-160z" />
<glyph unicode="&#x25fc;" horiz-adv-x="1054" d="M0 0v1055h1055v-1055h-1055z" />
<glyph unicode="&#xfb01;" horiz-adv-x="1175" d="M20 868v187h177v215q0 57 14 109.5t50 92t94.5 64.5t144.5 25q51 0 98 -8.5t84 -16.5l-10 -184q-23 6 -47.5 11t-53.5 5q-55 0 -87.5 -36t-32.5 -95v-182h192v-187h-192v-868h-254v868h-177zM778 1253v250h262v-250h-262zM782 0v1055h254v-1055h-254z" />
<glyph unicode="&#xfb02;" horiz-adv-x="1175" d="M20 868v187h177v215q0 57 14 109.5t50 92t94.5 64.5t144.5 25q51 0 98 -8.5t84 -16.5l-10 -184q-23 6 -47.5 11t-53.5 5q-55 0 -87.5 -36t-32.5 -95v-182h192v-187h-192v-868h-254v868h-177zM782 0v1536h254v-1536h-254z" />
</font>
</defs>
</svg>
